<svg xmlns="http://www.w3.org/2000/svg" viewBox="0 0 127 127"><defs><style>.cls-1,.cls-2,.cls-4{fill:none;stroke:#fff;stroke-miterlimit:10;}.cls-1,.cls-2{stroke-width:3px;}.cls-2,.cls-4{stroke-linecap:round;}.cls-3{fill:#fff;}.cls-4{stroke-width:4px;}</style></defs><title>gamer</title><g id="Layer_2" data-name="Layer 2"><g id="Layer_1-2" data-name="Layer 1"><circle cx="63.5" cy="63.5" r="63.5"/><path class="cls-1" d="M84.85,51.15a15.15,15.15,0,1,1,0,30.3c-4.51,0-5.09-5-11.37-5"/><path class="cls-1" d="M40.65,51.15a15.15,15.15,0,0,0,0,30.3c4.51,0,5.09-5,11.37-5"/><line class="cls-1" x1="40.65" y1="51.15" x2="84.85" y2="51.15"/><line class="cls-1" x1="52.02" y1="76.4" x2="74.11" y2="76.4"/><line class="cls-2" x1="40.65" y1="58.72" x2="40.65" y2="71.35"/><line class="cls-2" x1="34.34" y1="65.04" x2="46.97" y2="65.04"/><circle class="cls-3" cx="84.22" cy="58.09" r="2.53"/><circle class="cls-3" cx="77.9" cy="64.41" r="2.53"/><circle class="cls-3" cx="84.22" cy="70.72" r="2.53"/><circle class="cls-3" cx="90.53" cy="64.41" r="2.53"/><path class="cls-4" d="M77.9,24v9.67a4.22,4.22,0,0,1-4.22,4.22H68.55a5.8,5.8,0,0,0-5.8,5.8v6.83"/></g></g></svg>