<svg xmlns="http://www.w3.org/2000/svg" viewBox="0 0 127 127">
  <defs>
    <style>
      .cls-1 {
        fill: none;
        stroke: #fff;
        stroke-linecap: round;
        stroke-miterlimit: 10;
        stroke-width: 10px;
      }

      .cls-2 {
        fill: #fff;
      }
    </style>
  </defs>
  <title>professional</title>
  <g id="Layer_2" data-name="Layer 2">
    <g id="Layer_1-2" data-name="Layer 1">
      <circle cx="63.5" cy="63.5" r="63.5" />
      <circle class="cls-1" cx="82" cy="54" r="13" />
      <path class="cls-2" d="M91.43,42.51,82,39.13l4.41-7a1.18,1.18,0,0,1,1.41-.49L91.69,33a1.2,1.2,0,0,1,.78,1.27Z" />
      <path class="cls-2" d="M80.54,39.21l-9,4.27-1.82-8.06a1.2,1.2,0,0,1,.65-1.35L74,32.33a1.19,1.19,0,0,1,1.45.34Z" />
      <path class="cls-2" d="M70.51,44.57,67.13,54l-7-4.41a1.18,1.18,0,0,1-.49-1.41L61,44.31a1.2,1.2,0,0,1,1.27-.78Z" />
      <path class="cls-2" d="M67.21,55.46l4.27,9-8.06,1.82a1.2,1.2,0,0,1-1.35-.65L60.33,62a1.19,1.19,0,0,1,.34-1.45Z" />
      <path class="cls-2" d="M72.57,65.49,82,68.87l-4.41,7a1.18,1.18,0,0,1-1.41.49L72.31,75a1.2,1.2,0,0,1-.78-1.27Z" />
      <path class="cls-2" d="M83.46,68.79l9-4.27,1.82,8.06a1.2,1.2,0,0,1-.65,1.35L90,75.67a1.19,1.19,0,0,1-1.45-.34Z" />
      <path class="cls-2" d="M93.49,63.43,96.87,54l7,4.41a1.18,1.18,0,0,1,.49,1.41L103,63.69a1.2,1.2,0,0,1-1.27.78Z" />
      <path class="cls-2" d="M96.79,52.54l-4.27-9,8.06-1.82a1.2,1.2,0,0,1,1.35.65l1.74,3.7a1.19,1.19,0,0,1-.34,1.45Z" />
      <circle class="cls-1" cx="43" cy="72" r="13" />
      <path class="cls-2" d="M48,58H38l1.79-8.07A1.2,1.2,0,0,1,41,49h4.09a1.2,1.2,0,0,1,1.16.93Z" />
      <path class="cls-2" d="M36.64,58.56l-7.08,7.08-4.43-7a1.21,1.21,0,0,1,.16-1.49l2.89-2.89a1.2,1.2,0,0,1,1.48-.16Z" />
      <path class="cls-2" d="M29,67V77l-8.07-1.79A1.2,1.2,0,0,1,20,74V70a1.2,1.2,0,0,1,.93-1.16Z" />
      <path class="cls-2" d="M29.56,78.36l7.08,7.08-7,4.43a1.21,1.21,0,0,1-1.49-.16l-2.89-2.89a1.2,1.2,0,0,1-.16-1.48Z" />
      <path class="cls-2" d="M38,86H48l-1.79,8.07A1.2,1.2,0,0,1,45,95H41a1.2,1.2,0,0,1-1.16-.93Z" />
      <path class="cls-2" d="M49.36,85.44l7.08-7.08,4.43,7a1.21,1.21,0,0,1-.16,1.49l-2.89,2.89a1.2,1.2,0,0,1-1.48.16Z" />
      <path class="cls-2" d="M57,77V67l8.07,1.79A1.2,1.2,0,0,1,66,70v4.09a1.2,1.2,0,0,1-.93,1.16Z" />
      <path class="cls-2" d="M56.44,65.64l-7.08-7.08,7-4.43a1.21,1.21,0,0,1,1.49.16l2.89,2.89a1.2,1.2,0,0,1,.16,1.48Z" />
    </g>
  </g>
</svg>